<svg xmlns="http://www.w3.org/2000/svg" version="1.1" width="104" height="100" >
<path d="M0 0 C34.32 0 68.64 0 104 0 C104 33 104 66 104 100 C69.68 100 35.36 100 0 100 C0 67 0 34 0 0 Z " fill="#6637A2" transform="translate(0,0)" />
<path d="M0 0 C34.32 0 68.64 0 104 0 C104 33 104 66 104 100 C69.68 100 35.36 100 0 100 C0 67 0 34 0 0 Z M28 6 C26.31901374 8.78232209 25.15966678 11.04199934 24.625 14.25 C24.315625 15.11625 24.315625 15.11625 24 16 C23.278125 16.268125 22.55625 16.53625 21.8125 16.8125 C16.66951006 18.98398464 13.92322743 23.40822857 11.1875 28.125 C9.45659547 32.52730054 9.53951103 37.23882125 9.40625 41.9140625 C8.95564223 45.33694848 7.80169348 47.10408431 6 50 C4.2007273 60.65451679 9.17939423 69.87528194 14 79 C14.391875 79.79921875 14.78375 80.5984375 15.1875 81.421875 C18.15128471 87.23245291 21.77030874 92.58761193 28.2109375 94.73828125 C31.98574889 95.09250025 35.44223099 94.4287495 39.125 93.6875 C39.84042969 93.55666016 40.55585937 93.42582031 41.29296875 93.29101562 C44.75346646 92.62155485 47.03239878 91.97840081 50 90 C54.47150969 90.39901574 58.60155082 91.73478027 62.875 93.0625 C71.66422923 95.8969812 71.66422923 95.8969812 80.3046875 93.77734375 C86.38954467 89.55784443 89.20492474 84.72599783 92 78 C93.9618375 73.8409045 96.0559377 70.53287476 99 67 C101.30935175 62.38129649 100.33629857 56.0387786 100 51 C99.02059602 48.65794699 98.01965427 46.32481174 97 44 C96.69744204 40.19281236 96.56253961 36.44008009 96.50390625 32.62109375 C95.84482824 27.88492848 94.10240052 24.59914133 90.25390625 21.671875 C89.41666016 21.21554688 89.41666016 21.21554688 88.5625 20.75 C84.47515068 18.08053203 83.01511081 14.60943278 81.140625 10.20703125 C80.06861898 7.69583315 80.06861898 7.69583315 77 6 C76.01 6 75.02 6 74 6 C74 4.68 74 3.36 74 2 C64.84755529 1.69340446 56.65203245 1.50590997 48 5 C48 4.01 48 3.02 48 2 C37.03185016 0.97837144 37.03185016 0.97837144 28 6 Z " fill="#FBF9FC" transform="translate(0,0)"/>
<path d="M0 0 C0.886875 0.05542969 1.77375 0.11085938 2.6875 0.16796875 C5 0.8125 5 0.8125 6.12353516 2.54736328 C7.73808182 6.71999948 7.36915364 11.07723038 7.375 15.5 C7.39949219 16.45583984 7.42398438 17.41167969 7.44921875 18.39648438 C7.47589342 24.91844032 6.5033832 30.22085563 3 35.8125 C1.3603279 37.17889342 -0.30327614 38.51763179 -2 39.8125 C-3.34772903 42.93383744 -3.34772903 42.93383744 -4 45.8125 C-0.7 44.8225 2.6 43.8325 6 42.8125 C8.53182332 45.34432332 7.33142401 52.04253449 7.375 55.4375 C7.43107422 57.05978516 7.43107422 57.05978516 7.48828125 58.71484375 C7.56636055 65.82006036 6.85750994 69.53800502 2 74.8125 C-1.40537308 77.42328603 -4.82042821 77.17280791 -9 76.8125 C-13.11062053 75.2314921 -15.81375243 73.69916235 -18 69.8125 C-18 68.8225 -18 67.8325 -18 66.8125 C-16.02 65.8225 -14.04 64.8325 -12 63.8125 C-12 62.8225 -12 61.8325 -12 60.8125 C-12.59167969 60.64234375 -13.18335938 60.4721875 -13.79296875 60.296875 C-18.56818528 58.8323714 -22.48905863 57.5362257 -26 53.8125 C-28.00270423 49.80709155 -28.35857056 46.27926157 -27.6953125 41.83203125 C-26.61531343 38.69518001 -24.55474217 36.70778519 -22.1796875 34.453125 C-20.7574834 32.88213909 -20.7574834 32.88213909 -21.30859375 30.89453125 C-21.53675781 30.20746094 -21.76492187 29.52039063 -22 28.8125 C-22.11311965 27.29459216 -22.17462299 25.77206257 -22.1875 24.25 C-22.20167969 23.48558594 -22.21585938 22.72117187 -22.23046875 21.93359375 C-22 19.8125 -22 19.8125 -20 16.8125 C-17.875 16.125 -17.875 16.125 -16 15.8125 C-16 16.8025 -16 17.7925 -16 18.8125 C-12.04 18.3175 -12.04 18.3175 -8 17.8125 C-8.32355469 17.25691406 -8.64710937 16.70132812 -8.98046875 16.12890625 C-10.13745447 13.50019924 -10.29955213 11.61147869 -10.3125 8.75 C-10.32925781 7.89277344 -10.34601562 7.03554688 -10.36328125 6.15234375 C-9.9286498 3.35294333 -9.20087078 2.53142827 -7 0.8125 C-4.44165689 -0.46667156 -2.83998712 -0.21877808 0 0 Z " fill="#F8F6FA" transform="translate(42,10.1875)"/>
<path d="M0 0 C1.30324219 0.00193359 1.30324219 0.00193359 2.6328125 0.00390625 C3.74269531 0.21853516 3.74269531 0.21853516 4.875 0.4375 C7.40275351 4.22913027 7.09943035 7.24624031 7 11.625 C6.99097656 12.37458984 6.98195313 13.12417969 6.97265625 13.89648438 C6.94912578 15.74362654 6.91325561 17.59060412 6.875 19.4375 C10.175 18.4475 13.475 17.4575 16.875 16.4375 C19.54090937 20.99176184 20.19063182 24.17696963 19.875 29.4375 C18.885 29.4375 17.895 29.4375 16.875 29.4375 C16.875 31.7475 16.875 34.0575 16.875 36.4375 C17.65875 36.540625 18.4425 36.64375 19.25 36.75 C21.875 37.4375 21.875 37.4375 23.875 40.4375 C24.17578125 43.3984375 24.17578125 43.3984375 24.1875 46.8125 C24.20425781 47.93398438 24.22101563 49.05546875 24.23828125 50.2109375 C23.83369561 53.80435406 23.12810982 55.62485958 20.875 58.4375 C18.71875 59.58203125 18.71875 59.58203125 16.375 60.25 C15.21484375 60.59998047 15.21484375 60.59998047 14.03125 60.95703125 C11.875 61.4375 11.875 61.4375 8.875 61.4375 C9.205 63.4175 9.535 65.3975 9.875 67.4375 C11.525 67.7675 13.175 68.0975 14.875 68.4375 C14.37278899 72.15386148 13.84967073 74.09742569 10.875 76.4375 C5.49885116 77.81623697 -0.17427171 78.14861311 -5.125 75.4375 C-10.24626013 69.91585044 -9.59626335 64.28759945 -9.375 57.0625 C-9.35695312 55.94488281 -9.33890625 54.82726562 -9.3203125 53.67578125 C-9.27336439 50.9293171 -9.20162688 48.18329638 -9.125 45.4375 C-5.495 45.4375 -1.865 45.4375 1.875 45.4375 C-0.09901332 42.22058941 -1.76510609 39.72027379 -4.75 37.375 C-7.51302176 35.12095593 -8.05978381 33.80214063 -9.125 30.4375 C-9.56174465 26.09170723 -9.49523143 21.74062319 -9.5 17.375 C-9.52449219 16.19099609 -9.54898438 15.00699219 -9.57421875 13.78710938 C-9.57808594 12.64951172 -9.58195312 11.51191406 -9.5859375 10.33984375 C-9.59415527 9.30335693 -9.60237305 8.26687012 -9.61083984 7.19897461 C-8.64541298 1.71156594 -5.28177033 -0.11824859 0 0 Z " fill="#F8F6FA" transform="translate(67.125,9.5625)"/>
</svg>